HIERARCHY
ROOT Hips
{
 OFFSET 0.000000 0.000000 0.000000
 CHANNELS 6 Xposition Yposition Zposition Yrotation Xrotation Zrotation
 JOINT Chest
 {
  OFFSET 0.000000 9.910571 -0.011835
  CHANNELS 3 Yrotation Xrotation Zrotation
  JOINT Chest2
  {
   OFFSET 0.000000 10.789473 0.021497
   CHANNELS 3 Yrotation Xrotation Zrotation
   JOINT Chest3
   {
    OFFSET 0.000000 9.748205 0.000000
    CHANNELS 3 Yrotation Xrotation Zrotation
    JOINT Chest4
    {
     OFFSET 0.000000 9.748205 0.000000
     CHANNELS 3 Yrotation Xrotation Zrotation
     JOINT Neck
     {
      OFFSET 0.000000 13.998479 0.000000
      CHANNELS 3 Yrotation Xrotation Zrotation
      JOINT Head
      {
       OFFSET 0.000000 9.082285 0.051121
       CHANNELS 3 Yrotation Xrotation Zrotation
       End Site
       {
        OFFSET 0.000000 17.246134 0.026702
       }
      }
     }
     JOINT RightCollar
     {
      OFFSET -3.284495 7.824262 0.000000
      CHANNELS 3 Yrotation Xrotation Zrotation
      JOINT RightShoulder
      {
       OFFSET -15.534540 0.000000 0.000000
       CHANNELS 3 Yrotation Xrotation Zrotation
       JOINT RightElbow
       {
        OFFSET 0.000000 -28.251216 0.000000
        CHANNELS 3 Yrotation Xrotation Zrotation
        JOINT RightWrist
        {
         OFFSET 0.000000 -23.418114 0.012537
         CHANNELS 3 Yrotation Xrotation Zrotation
         End Site
         {
          OFFSET 0.000000 -17.723959 0.000000
         }
        }
       }
      }
     }
     JOINT LeftCollar
     {
      OFFSET 3.284495 7.824262 0.000000
      CHANNELS 3 Yrotation Xrotation Zrotation
      JOINT LeftShoulder
      {
       OFFSET 15.534540 0.000000 0.000000
       CHANNELS 3 Yrotation Xrotation Zrotation
       JOINT LeftElbow
       {
        OFFSET 0.000000 -28.251216 0.000000
        CHANNELS 3 Yrotation Xrotation Zrotation
        JOINT LeftWrist
        {
         OFFSET 0.000000 -23.418114 0.012537
         CHANNELS 3 Yrotation Xrotation Zrotation
         End Site
         {
          OFFSET 0.000000 -17.723959 0.000000
         }
        }
       }
      }
     }
    }
   }
  }
 }
 JOINT RightHip
 {
  OFFSET -8.142657 0.057990 0.005917
  CHANNELS 3 Yrotation Xrotation Zrotation
  JOINT RightKnee
  {
   OFFSET 0.000000 -49.716894 0.008478
   CHANNELS 3 Yrotation Xrotation Zrotation
   JOINT RightAnkle
   {
    OFFSET 0.000000 -43.994153 0.004166
    CHANNELS 3 Yrotation Xrotation Zrotation
    JOINT RightToe
    {
     OFFSET 0.000000 -7.619154 17.822051
     CHANNELS 3 Yrotation Xrotation Zrotation
     End Site
     {
      OFFSET 0.000000 -1.595627 7.159905
     }
    }
   }
  }
 }
 JOINT LeftHip
 {
  OFFSET 8.142657 0.057990 0.005917
  CHANNELS 3 Yrotation Xrotation Zrotation
  JOINT LeftKnee
  {
   OFFSET 0.000000 -49.716894 0.008478
   CHANNELS 3 Yrotation Xrotation Zrotation
   JOINT LeftAnkle
   {
    OFFSET 0.000000 -43.994153 0.004166
    CHANNELS 3 Yrotation Xrotation Zrotation
    JOINT LeftToe
    {
     OFFSET 0.000000 -7.619154 17.822051
     CHANNELS 3 Yrotation Xrotation Zrotation
     End Site
     {
      OFFSET 0.000000 -1.595627 7.159905
     }
    }
   }
  }
 }
}
MOTION
Frames: 13
Frame Time: 0.008333
247.742479 57.353145 255.216399 -52.416491 -54.268705 1.087541 -3.984940 20.914968 -2.913045 -1.643510 9.295837 -1.489291 -1.643510 9.295837 -1.489291 -1.207090 6.975978 -1.089318 0.202259 18.764778 0.751874 0.127496 -1.335808 1.313501 0.599316 10.899914 13.260548 29.384143 -22.425419 -23.606291 12.641658 -34.110730 5.552971 26.049244 -9.417454 -19.942140 -2.026642 11.595034 -12.158774 -15.492075 -22.509420 21.369238 -5.470285 -45.116397 7.861456 -48.148490 -20.155395 1.635625 -16.151203 -21.069693 -5.432883 -10.754275 34.200130 -14.539059 5.061853 29.199343 6.057059 -0.548872 1.181715 -0.229441 18.924249 -29.421128 3.277887 92.102803 88.914178 87.650769 -29.541864 -6.626766 -21.387333 -0.141534 -0.148544 -0.057710
247.740116 57.368663 255.214794 -52.407410 -54.290401 1.048188 -3.983530 20.912009 -2.882800 -1.644222 9.290694 -1.488995 -1.644222 9.290694 -1.488995 -1.207644 6.972122 -1.089102 0.185699 18.796463 0.742700 0.100372 -1.276868 1.301907 0.578127 10.906952 13.266146 29.420198 -22.417709 -23.605903 12.677786 -34.059380 5.517956 26.034319 -9.438841 -19.941775 -2.040706 11.598682 -12.163026 -15.472565 -22.502938 21.360257 -5.550730 -45.065013 7.866182 -48.142639 -20.129195 1.689295 -16.166364 -21.040836 -5.404799 -10.757674 34.200935 -14.537552 5.062521 29.154276 6.055077 -0.555364 1.226537 -0.234072 18.897637 -29.404902 3.321100 91.925334 88.919559 87.477626 -29.537689 -6.627806 -21.387244 -0.144012 -0.150590 -0.060482
247.738995 57.382939 255.214105 -52.402387 -54.307916 1.023167 -3.983266 20.905647 -2.865520 -1.645674 9.285966 -1.490983 -1.645674 9.285966 -1.490983 -1.208714 6.968585 -1.090583 0.175493 18.827152 0.738885 0.083160 -1.219803 1.298081 0.579527 10.912859 13.281269 29.424033 -22.422279 -23.603571 12.733507 -34.014944 5.490020 26.014820 -9.450086 -19.947158 -2.050874 11.598557 -12.157941 -15.451226 -22.500193 21.346602 -5.594936 -44.994078 7.886855 -48.159291 -20.141784 1.722982 -16.176939 -21.020345 -5.387530 -10.753519 34.202507 -14.536022 5.057092 29.123557 6.059643 -0.566901 1.257484 -0.242205 18.880042 -29.389285 3.351320 91.764932 88.924282 87.318082 -29.536748 -6.626515 -21.382767 -0.145604 -0.153268 -0.063429
247.736728 57.396785 255.211548 -52.398301 -54.323324 1.000402 -3.986076 20.900217 -2.853184 -1.645751 9.280178 -1.491234 -1.645751 9.280178 -1.491234 -1.208786 6.964244 -1.090789 0.160541 18.859825 0.732804 0.057996 -1.159024 1.291618 0.560334 10.919586 13.290303 29.451054 -22.414461 -23.608302 12.777368 -33.965704 5.468589 25.999866 -9.473893 -19.952845 -2.075122 11.599509 -12.163510 -15.424456 -22.498926 21.343377 -5.670640 -44.941429 7.891153 -48.159100 -20.117522 1.770683 -16.189614 -21.003065 -5.364465 -10.748561 34.207550 -14.538046 5.038076 29.100053 6.048989 -0.560603 1.280009 -0.241602 18.865432 -29.374598 3.377776 91.456084 88.925987 87.015294 -29.538556 -6.626619 -21.385391 -0.144725 -0.155545 -0.063596
247.734950 57.409841 255.209124 -52.404939 -54.336976 0.998215 -3.985402 20.888059 -2.847183 -1.645936 9.274318 -1.492696 -1.645936 9.274318 -1.492696 -1.208920 6.959854 -1.091900 0.147058 18.891095 0.726354 0.035636 -1.100865 1.284002 0.550761 10.930795 13.300903 29.458145 -22.414726 -23.610941 12.829430 -33.922960 5.449970 25.991322 -9.481979 -19.956727 -2.092693 11.607452 -12.165633 -15.407711 -22.502655 21.331354 -5.715592 -44.866261 7.920575 -48.164371 -20.130735 1.808737 -16.188189 -20.990954 -5.359471 -10.748888 34.210768 -14.539274 5.046685 29.086026 6.056451 -0.572303 1.292899 -0.246173 18.862970 -29.357491 3.390561 91.038156 88.924081 86.604089 -29.539522 -6.625597 -21.390347 -0.145911 -0.157168 -0.064050
247.732313 57.422462 255.206174 -52.419062 -54.349890 0.989781 -3.984072 20.880467 -2.836363 -1.644136 9.268466 -1.490983 -1.644136 9.268466 -1.490983 -1.207618 6.955456 -1.090665 0.133244 18.917668 0.720163 0.012545 -1.051427 1.276980 0.551305 10.941763 13.304451 29.463205 -22.416623 -23.620316 12.878905 -33.878583 5.428849 25.985427 -9.499056 -19.960559 -2.113478 11.614107 -12.176636 -15.385139 -22.513312 21.326026 -5.803438 -44.806861 7.926562 -48.155059 -20.094571 1.863954 -16.189979 -20.972303 -5.335467 -10.750553 34.208126 -14.543033 5.050467 29.074302 6.050898 -0.568865 1.306537 -0.242863 18.855004 -29.344518 3.417600 90.767537 88.923970 86.338967 -29.537888 -6.630981 -21.395201 -0.146843 -0.156403 -0.064761
247.731171 57.433029 255.202955 -52.435979 -54.357175 0.996571 -3.978384 20.861113 -2.829100 -1.644020 9.262213 -1.491790 -1.644020 9.262213 -1.491790 -1.207537 6.950768 -1.091291 0.120794 18.945930 0.715012 -0.008362 -0.998856 1.271409 0.553892 10.958317 13.314363 29.462043 -22.417571 -23.623749 12.933766 -33.831926 5.407606 25.980655 -9.505145 -19.970577 -2.132797 11.627516 -12.182128 -15.370878 -22.520631 21.315906 -5.851461 -44.730242 7.956327 -48.154362 -20.114545 1.902884 -16.190033 -20.965614 -5.327293 -10.746085 34.205114 -14.542187 5.065920 29.075098 6.056796 -0.578275 1.309543 -0.246040 18.862310 -29.334475 3.429818 90.422251 88.928677 85.997389 -29.536175 -6.628297 -21.395602 -0.148651 -0.158024 -0.065443
247.729317 57.443143 255.198961 -52.440858 -54.365208 0.990808 -3.974224 20.847313 -2.819777 -1.643470 9.256108 -1.491544 -1.643470 9.256108 -1.491544 -1.207149 6.946187 -1.091135 0.106062 18.971511 0.712022 -0.034167 -0.951229 1.270539 0.545805 10.972572 13.325957 29.473069 -22.423493 -23.636885 12.985934 -33.782706 5.384363 25.978067 -9.512990 -19.969045 -2.156937 11.634793 -12.192345 -15.351841 -22.522276 21.314260 -5.930767 -44.682912 7.957488 -48.147782 -20.085231 1.950529 -16.192985 -20.954673 -5.313240 -10.742684 34.203245 -14.539797 5.059138 29.071480 6.046533 -0.571213 1.315999 -0.243123 18.858334 -29.324691 3.444515 90.164155 88.921407 85.742334 -29.540003 -6.631409 -21.399048 -0.149027 -0.156288 -0.064886
247.728278 57.452926 255.195389 -52.444672 -54.376998 0.988221 -3.971115 20.831100 -2.816529 -1.643373 9.250190 -1.492538 -1.643373 9.250190 -1.492538 -1.207079 6.941751 -1.091900 0.093784 18.997559 0.710187 -0.055836 -0.902747 1.270986 0.542638 10.988627 13.334156 29.478655 -22.432500 -23.634318 13.041935 -33.731445 5.355679 25.965701 -9.526861 -19.967780 -2.176483 11.652041 -12.196573 -15.343871 -22.528526 21.311789 -5.960307 -44.608074 7.973323 -48.163692 -20.101391 1.995414 -16.196835 -20.941364 -5.309625 -10.742107 34.199627 -14.536002 5.075473 29.070731 6.053365 -0.575659 1.318767 -0.248138 18.860414 -29.310700 3.456154 89.804259 88.925771 85.387126 -29.535856 -6.630857 -21.400973 -0.150700 -0.155561 -0.064601
247.725672 57.462314 255.190946 -52.446691 -54.390637 0.982546 -3.967196 20.821476 -2.810930 -1.641495 9.244902 -1.492598 -1.641495 9.244902 -1.492598 -1.205689 6.937780 -1.091991 0.079979 19.019901 0.707446 -0.080042 -0.861140 1.270274 0.537321 10.998973 13.348411 29.485789 -22.434190 -23.641975 13.088837 -33.680458 5.329547 25.955890 -9.542326 -19.968946 -2.193570 11.665914 -12.194945 -15.332382 -22.535553 21.305933 -6.035683 -44.564270 7.972871 -48.158793 -20.074284 2.036092 -16.198676 -20.927108 -5.303336 -10.741232 34.203991 -14.529161 5.047567 29.063112 6.030523 -0.567411 1.324138 -0.246419 18.851998 -29.297689 3.477454 89.617755 88.934113 85.196348 -29.533829 -6.626272 -21.398545 -0.152462 -0.158201 -0.065990
247.723750 57.471433 255.187742 -52.449122 -54.404066 0.987038 -3.971417 20.810324 -2.813319 -1.642564 9.239333 -1.493620 -1.642564 9.239333 -1.493620 -1.206491 6.933609 -1.092758 0.064116 19.041760 0.700372 -0.106633 -0.820438 1.262279 0.541898 11.015476 13.354997 29.497235 -22.439490 -23.653401 13.130507 -33.634805 5.309546 25.947728 -9.553348 -19.967909 -2.204515 11.677786 -12.204437 -15.320754 -22.542473 21.302967 -6.067495 -44.496970 7.983624 -48.173368 -20.090726 2.071191 -16.201487 -20.914270 -5.306107 -10.736122 34.202633 -14.531645 5.056788 29.062742 6.043648 -0.573542 1.324348 -0.252588 18.850464 -29.277836 3.484702 89.166577 88.934532 84.743290 -29.535400 -6.624837 -21.401829 -0.152398 -0.157936 -0.064414
247.720801 57.474330 255.177077 -52.503788 -54.375364 0.987265 -3.918961 20.765196 -2.760590 -1.641475 9.234731 -1.493138 -1.641475 9.234731 -1.493138 -1.205697 6.930154 -1.092429 0.044156 19.065418 0.693543 -0.140787 -0.776353 1.256025 0.520895 11.030424 13.359725 29.513429 -22.446698 -23.669942 13.173921 -33.594233 5.291918 25.932754 -9.564084 -19.969476 -2.228285 11.683364 -12.213452 -15.301774 -22.545882 21.300687 -6.136813 -44.456661 7.974483 -48.177546 -20.058604 2.122811 -16.201996 -20.926619 -5.255013 -10.724462 34.192642 -14.523956 5.121949 29.058359 6.099155 -0.631589 1.330005 -0.279191 18.869758 -29.322010 3.525667 89.427339 88.943876 85.015510 -29.531450 -6.632506 -21.406363 -0.152759 -0.155956 -0.064946
247.720743 57.480667 255.174500 -52.513037 -54.383331 0.996491 -3.916655 20.752800 -2.762813 -1.640459 9.230492 -1.493676 -1.640459 9.230492 -1.493676 -1.204941 6.926973 -1.092861 0.025952 19.088293 0.686946 -0.171802 -0.733737 1.249630 0.518386 11.044269 13.372782 29.532701 -22.453163 -23.684542 13.207619 -33.545217 5.264348 25.922139 -9.574943 -19.967058 -2.246790 11.686864 -12.217715 -15.284226 -22.551426 21.291581 -6.171312 -44.393606 7.993317 -48.191276 -20.073626 2.161223 -16.202625 -20.922890 -5.255864 -10.717155 34.194481 -14.521056 5.114461 29.069247 6.096937 -0.626894 1.322390 -0.280770 18.869735 -29.311825 3.529187 89.204260 88.941303 84.790897 -29.532221 -6.628725 -21.411495 -0.154014 -0.158854 -0.064274
